# xmcd CD database file
#
# Track frame offsets:
#	150
#	10657
#	24102
#	37195
#	49215
#	61600
#	73337
#	87902
#	98267
#	108912
#	121612
#	134675
#	147552
#	160840
#	173237
#	185612
#	197515
#	210357
#	221835
#	235125
#	250265
#	263372
#	275570
#	288845
#	300800
#
# Disc length: 4185 seconds
#
# Revision: 0
# Processed by: cddbd v1.5.1PL2 Copyright (c) Steve Scherf et al.
# Submitted via: CDex 1.51
#
DISCID=54105719
DTITLE=Lightnin' Hopkins - The Chronological Lightnin' Hopkins: 1950-1951
DYEAR=2005
DGENRE=Blues
TTITLE0=Drifting Blues
TTITLE1=Last Affair
TTITLE2=Jack Head Boogie
TTITLE3=Ticket Agent
TTITLE4=Lonesome Dog Blues
TTITLE5=House Upon The Hill
TTITLE6=Tell Me Pretty Mama
TTITLE7=Give Me Back That Wig (Wig Wearing Mama)
TTITLE8=Everyday I Have The Blues
TTITLE9=War News Blues
TTITLE10=Needed Time
TTITLE11=One Kind Favor
TTITLE12=Another Fool In Town
TTITLE13=Candy Kitchen
TTITLE14=Mistreater Blues (Mistreated)
TTITLE15=Black Cat
TTITLE16=Santa Fe
TTITLE17=Someday Baby
TTITLE18=Black Cat Bone
TTITLE19=Disagreeable
TTITLE20=Dark And Cloudy
TTITLE21=Coffee Blues
TTITLE22=Praying Ground Blues
TTITLE23=Gotta Move
TTITLE24=Give Me Central 209 (Hello Central)
EXTD=YEAR: 2005
EXTT0=
EXTT1=
EXTT2=
EXTT3=
EXTT4=
EXTT5=
EXTT6=
EXTT7=
EXTT8=
EXTT9=
EXTT10=
EXTT11=
EXTT12=
EXTT13=
EXTT14=
EXTT15=
EXTT16=
EXTT17=
EXTT18=
EXTT19=
EXTT20=
EXTT21=
EXTT22=
EXTT23=
EXTT24=
PLAYORDER=
